PathFileType	4	(X/Y/Z)	C:/Users/beibeiliu/ov580/test_trc/User3\sequence.24_training_dense_right.trc
DataRate	CameraRate	NumFrames	NumMarkers	Units	OrigDataRate	OrigDataStartFrame	OrigNumFrames
120	120	10	19	mm	120	241	275
Frame#	Time	ThumbCMC			ThumbMCP			ThumbIP			ThumbTip			IndexMCP			IndexPIP			IndexTip			MiddleMCP			MiddlePIP			MiddleTip			RingMCP			RingPIP			RingTip			PinkyMCP			PinkyPIP			PinkyTip			BackHand1			BackHand2			BackHand3	
		X0	Y0	Z0	X1	Y1	Z1	X2	Y2	Z2	X3	Y3	Z3	X4	Y4	Z4	X5	Y5	Z5	X6	Y6	Z6	X7	Y7	Z7	X8	Y8	Z8	X9	Y9	Z9	X10	Y10	Z10	X11	Y11	Z11	X12	Y12	Z12	X13	Y13	Z13	X14	Y14	Z14	X15	Y15	Z15	X16	Y16	Z16	X17	Y17	Z17	X18	Y18	Z18	
240	2	141.527	-9.26637	32.1253	106.268	-12.1048	30.4515	80.81	-18.9255	26.3143	58.6534	-21.1256	24.9496	102.988	-50.676	-19.5087	76.3801	-59.6449	-18.5721	55.0205	-65.1405	-14.1371	103.145	-68.3363	-0.936496	84.8478	-63.9569	23.798	107.147	-41.0285	51.862	113.453	-76.8079	14.1136	104.058	-65.4932	41.6981	125.457	-45.8124	50.2527	122.02	-88.9958	26.2347	114.751	-71.8932	44.6012	137.952	-53.7121	49.6119	169.923	-62.4128	8.10916	193.361	-49.2729	28.6617	168.251	-26.1533	7.29612	
241	2.00833	143.234	-0.990424	30.2227	107.197	-1.84797	29.2637	80.515	-6.74609	23.5548	57.901	-8.76327	20.64	102.494	-37.1962	-19.6856	77.2342	-42.8991	-20.2882	51.4347	-46.9932	-16.0891	99.5315	-54.7466	-2.90809	79.7167	-47.8024	22.2044	103.33	-35.5681	49.3888	107.255	-66.237	12.9314	99.1914	-54.1529	41.3903	125.485	-39.3224	49.8294	117.266	-78.2873	24.3804	110.043	-60.7954	44.9705	138.716	-44.8513	48.3084	166.061	-57.117	6.82113	187.167	-45.4626	28.4021	167.231	-22.5743	6.62215	
242	2.01667	145.73	6.52181	28.7909	113.35	6.48775	27.7127	83.0997	9.9333	22.5855	64.6439	7.8572	20.5831	105.424	-22.2841	-22.6825	77.2267	-27.3945	-23.056	51.8235	-32.9139	-19.0681	98.855	-43.3917	-4.70424	78.0793	-31.4501	21.1564	101.59	-22.6155	46.7263	105.88	-55.2813	11.327	94.9145	-40.9311	38.0098	127.595	-28.8607	46.6901	113.037	-68.4391	23.3737	107.31	-47.9016	45.7971	136.46	-34.9579	46.1324	159.47	-50.8218	6.54005	186.053	-44.3861	29.4168	170.832	-15.8156	10.0197	
243	2.025	152.745	15.3158	30.0608	118.523	18.8084	26.1142	89.053	20.7055	17.7489	68.837	25.6126	15.0908	103.199	-15.5568	-25.9312	79.0404	-13.1945	-27.3276	53.8091	-14.9806	-25.3422	100.39	-32.7462	-8.21529	77.4133	-22.1354	15.1239	102.872	-9.99825	44.0102	101.973	-42.4465	8.36633	93.1126	-28.4483	32.9719	122.369	-18.5778	43.6404	109.154	-54.6386	20.0486	104.456	-35.4593	40.5545	130.787	-29.5481	42.8804	157.76	-50.5461	6.46454	182.098	-42.1672	29.1754	171.993	-12.155	7.29533	
244	2.03333	157.658	19.2464	29.8196	122.901	23.9667	22.4093	92.8831	30.4233	12.4849	74.8245	37.0007	9.40801	109.819	-6.70106	-27.9088	83.1169	-2.24132	-32.0287	56.0324	0.0307564	-30.9457	102.723	-19.849	-13.9533	80.9097	-10.2143	10.9292	106.364	-0.280419	40.5355	101.661	-35.2392	4.23458	92.8005	-22.6389	29.9349	126.881	-11.5435	39.8568	106.655	-47.9272	17.3284	103.162	-26.8693	36.1963	135.343	-23.9518	40.1074	161.43	-42.6906	5.06012	181.92	-39.9227	29.8563	172.675	-9.20364	4.48122	
245	2.04167	162.879	21.9747	27.4426	129.006	30.0904	17.8973	104.084	36.9213	8.95694	82.8416	42.6921	3.21335	118.898	0.856548	-31.658	93.945	9.44938	-37.2956	63.5726	10.4146	-36.5595	104.597	-14.8572	-17.8418	85.0542	-0.600133	3.36085	104.652	8.0717	35.2897	104.495	-29.6536	0.129212	95.7876	-11.0903	24.2152	123.972	-7.91338	37.8469	104.254	-39.3173	14.4445	104.141	-20.2414	31.2512	133.625	-16.7419	36.7937	159.037	-40.8952	2.90638	183.389	-38.1979	29.9521	178.381	-6.88756	7.08565	
246	2.05	167.395	25.5171	22.4347	135.512	35.3733	12.3408	110.735	41.1465	2.22601	90.3462	48.4118	-6.84633	126.19	5.14353	-36.5922	98.9783	15.0972	-44.8956	76.1171	19.552	-45.8654	109.63	-8.21819	-23.4741	89.8533	6.06439	-1.62491	112.38	14.9527	30.8059	110.442	-19.2534	-8.63429	98.2948	-5.75863	18.8129	127.465	-3.23072	33.9382	109.751	-33.6261	6.92969	103.759	-15.3499	24.0371	136.887	-11.8029	34.9012	162.7	-41.8998	2.23531	183.77	-39.1448	29.3405	183.989	-5.88095	5.7057	
247	2.05833	173.796	26.7137	19.5855	143.43	38.0827	6.84154	118.819	45.9087	-6.0281	102.618	55.6006	-14.1629	136.99	9.12484	-43.5291	109.438	18.0152	-51.7071	84.1391	27.481	-54.6282	120.493	-3.64108	-30.261	98.3762	12.7588	-10.6395	115.466	19.1344	22.7397	112.487	-17.716	-13.4918	103.407	-3.84713	10.7653	132.072	0.521527	28.2796	111.167	-31.1652	1.26739	109.278	-9.9381	17.8581	136.547	-11.6405	32.3208	168.077	-39.7899	3.53253	186.192	-35.8827	26.9489	189.393	-7.63314	1.7285	
248	2.06667	179.448	22.9806	18.3522	152.983	35.8089	4.03437	128.808	44.8359	-14.963	112.556	55.0917	-23.9669	147.13	6.7422	-48.5656	123.566	13.6888	-58.0646	99.1606	23.0706	-63.3046	126.837	-6.88162	-35.9528	107.305	13.077	-20.1217	120.38	18.2987	15.6312	124.643	-18.3647	-19.8915	109.726	-0.992773	-1.45577	137.144	1.57445	22.3987	119.783	-32.2808	-5.27507	114.577	-10.9466	11.3772	142.629	-11.5775	28.9515	174.506	-41.5849	0.578355	189.987	-43.2554	28.9297	193.683	-11.8623	3.53554	
249	2.075	186.315	17.2611	16.714	158.957	30.6553	-5.27647	139.299	38.8442	-21.79	121.416	48.7225	-36.5996	156.568	0.539274	-54.1214	136.072	11.5698	-66.1574	112.663	18.3954	-72.2378	136.847	-11.4328	-43.0233	115.997	8.76038	-30.9824	124.664	14.2289	9.56429	130.355	-20.7435	-26.7414	116.751	-4.51237	-6.15086	141.115	-0.575681	17.4662	128.376	-32.6684	-12.9159	117.873	-16.2415	6.17212	146.47	-12.8976	22.178	182.193	-42.9644	-2.37497	195.2	-43.1213	29.6741	201.697	-18.6867	4.47088	
